<svg xmlns="http://www.w3.org/2000/svg" viewBox="0 0 200 240" fill="none">
  <!-- Antlers -->
  <path d="M98 52 Q94 38 86 28 Q80 22 74 18" stroke="#e8a0b4" stroke-width="3" stroke-linecap="round" fill="none" opacity="0.6"/>
  <path d="M98 52 Q88 40 78 36 Q68 32 58 30" stroke="#e8a0b4" stroke-width="2.5" stroke-linecap="round" fill="none" opacity="0.6"/>
  <path d="M102 52 Q106 38 114 28 Q120 22 126 18" stroke="#e8a0b4" stroke-width="3" stroke-linecap="round" fill="none" opacity="0.6"/>
  <path d="M102 52 Q112 40 122 36 Q132 32 142 30" stroke="#e8a0b4" stroke-width="2.5" stroke-linecap="round" fill="none" opacity="0.6"/>

  <!-- Ears -->
  <ellipse cx="78" cy="60" rx="10" ry="20" fill="#f5f0e8" opacity="0.15" transform="rotate(-15 78 60)"/>
  <ellipse cx="122" cy="60" rx="10" ry="20" fill="#f5f0e8" opacity="0.15" transform="rotate(15 122 60)"/>

  <!-- Head -->
  <ellipse cx="100" cy="78" rx="32" ry="26" fill="#f5f0e8" opacity="0.12"/>

  <!-- Snout -->
  <ellipse cx="100" cy="92" rx="18" ry="12" fill="#f5f0e8" opacity="0.08"/>

  <!-- Eyes (closed, calm — Shikamaru squint) -->
  <path d="M82 76 Q86 72 90 76" stroke="#f5f0e8" stroke-width="1.5" stroke-linecap="round" fill="none" opacity="0.3"/>
  <path d="M110 76 Q114 72 118 76" stroke="#f5f0e8" stroke-width="1.5" stroke-linecap="round" fill="none" opacity="0.3"/>

  <!-- Nose -->
  <ellipse cx="100" cy="94" rx="3" ry="2" fill="#e8a0b4" opacity="0.4"/>

  <!-- Mouth — slight lazy smile -->
  <path d="M92 100 Q100 103 108 100" stroke="#f5f0e8" stroke-width="1" stroke-linecap="round" fill="none" opacity="0.2"/>

  <!-- Neck -->
  <path d="M84 98 Q80 120 82 140 Q86 160 90 180" stroke="#f5f0e8" stroke-width="1" fill="none" opacity="0.08"/>
  <path d="M116 98 Q120 120 118 140 Q114 160 110 180" stroke="#f5f0e8" stroke-width="1" fill="none" opacity="0.08"/>
  <rect x="82" y="98" width="36" height="82" rx="18" fill="#f5f0e8" opacity="0.06"/>

  <!-- Body hint -->
  <ellipse cx="100" cy="190" rx="40" ry="30" fill="#f5f0e8" opacity="0.04"/>
</svg>
